<?xml version="1.0" encoding="UTF-8" standalone="no"?>
<svg
   xmlns:dc="http://purl.org/dc/elements/1.1/"
   xmlns:cc="http://creativecommons.org/ns#"
   xmlns:rdf="http://www.w3.org/1999/02/22-rdf-syntax-ns#"
   xmlns:svg="http://www.w3.org/2000/svg"
   xmlns="http://www.w3.org/2000/svg"
   viewBox="0 0 736.09332 146.34666"
   height="146.34666"
   width="736.09332"
   xml:space="preserve"
   id="svg2"
   version="1.1"><metadata
     id="metadata8"><rdf:RDF><cc:Work
         rdf:about=""><dc:format>image/svg+xml</dc:format><dc:type
           rdf:resource="http://purl.org/dc/dcmitype/StillImage" /></cc:Work></rdf:RDF></metadata><defs
     id="defs6" /><g
     transform="matrix(1.3333333,0,0,-1.3333333,0,146.34667)"
     id="g10"><g
       transform="scale(0.1)"
       id="g12"><path
         id="path14"
         style="fill:#ffffff;fill-opacity:1;fill-rule:nonzero;stroke:none"
         d="m 3509.02,1091.69 c -1.66,0.22 -2.97,1.31 -2.97,2.96 0,1.64 1.33,2.95 2.97,2.95 H 5317.17 V 0 C 4902.39,585.77 4254.02,993.68 3509.02,1091.69" /><path
         id="path16"
         style="fill:#f2591c;fill-opacity:1;fill-rule:nonzero;stroke:none"
         d="m 5018.75,458.148 c 12.23,180.68 8.31,286.188 39.23,314.848 28.61,26.5 80.21,33.711 167.85,40.094 -192.42,22.223 -187.77,16.519 -207.08,203.56 -19.31,-187.041 -14.65,-181.337 -207.08,-203.56 87.64,-6.383 139.25,-13.594 167.86,-40.094 30.92,-28.66 26.99,-134.168 39.22,-314.848" /><path
         id="path18"
         style="fill:#ffffff;fill-opacity:1;fill-rule:nonzero;stroke:none"
         d="M 2030.43,332.945 V 97.1094 c -28.02,-23.8906 -54.01,-41.5586 -93.49,-41.5586 -47.79,0 -110.12,40.5195 -110.12,157.9142 0,126.742 98.69,218.152 203.61,119.48 M 3936.37,215.527 c 0,-90.371 -30.13,-162.0465 -97.65,-162.0465 -67.53,0 -97.66,71.6755 -97.66,162.0465 0,90.399 30.13,162.098 97.66,162.098 67.52,0 97.65,-71.699 97.65,-162.098 m -309.58,0 c 0,-109.082 81.01,-199.4684 211.93,-199.4684 130.88,0 211.92,90.3864 211.92,199.4684 0,109.09 -81.04,199.481 -211.92,199.481 -130.92,0 -211.93,-90.391 -211.93,-199.481 m -2595.2,0 c 0,-90.371 -30.13,-162.0465 -97.649,-162.0465 -67.531,0 -97.66,71.6755 -97.66,162.0465 0,90.399 30.129,162.098 97.66,162.098 67.519,0 97.649,-71.699 97.649,-162.098 M 440.48,494.984 h -61.3 L 256.59,178.145 125.699,542.766 H 0 L 194.27,21.2695 h 59.218 L 379.18,343.305 503.828,21.2695 H 563.07 L 757.32,541.715 H 698.121 L 562.012,178.145 Z M 4524.72,20.25 v 215.027 c 0,145.45 -111.15,181.797 -176.57,181.797 -46.77,0 -86.26,-17.656 -125.73,-44.66 l -2.11,1.051 v 37.41 h -99.7 V 20.25 h 108.02 v 314.746 c 32.21,28.09 63.4,39.512 90.39,39.512 57.15,0 96.62,-55.082 96.62,-115.313 V 20.25 Z m -1913.17,0 h 45.73 l 228.55,524.625 h -59.23 l -158.95,-368.82 -156.87,368.82 H 2379.9 Z m -704.73,-8.3281 c 50.9,0 92.46,17.6562 129.85,46.7695 l 2.08,-1.0508 V 20.25 h 99.73 V 617.605 H 2030.43 V 379.676 c -30.12,22.871 -75.82,37.398 -122.57,37.398 -59.22,0 -200.5,-36.347 -200.5,-207.769 0,-127.7855 112.19,-197.3831 199.46,-197.3831 M 3081.88,303.836 c -10.38,-148.57 207.79,-113.238 201.56,-203.629 -3.14,-36.3086 -34.3,-48.8164 -67.53,-47.7656 -54.04,4.1797 -87.27,35.3399 -116.36,69.6136 l -32.19,-71.6761 c 43.59,-24.9375 91.39,-37.4101 132.95,-40.52734 93.51,-6.22265 172.49,34.32034 177.64,124.65644 9.35,140.238 -216.08,122.597 -211.91,194.269 2.09,31.168 37.37,46.739 73.74,44.688 37.42,-3.117 66.51,-23.899 98.7,-52.988 l 29.11,64.41 c -40.52,17.66 -78.96,25.988 -113.24,29.09 -100.77,6.218 -168.3,-46.75 -172.47,-110.141 m -107.76,283.609 c -32.23,0 -57.15,-24.937 -57.15,-57.148 0,-32.172 24.92,-57.109 57.15,-57.109 32.21,0 57.13,24.937 57.13,57.109 0,32.211 -24.92,57.148 -57.13,57.148 m 40.52,-176.57 H 2906.61 V 20.2383 h 108.03 z M 722.012,215.527 c 0,-109.082 81.008,-199.4684 211.929,-199.4684 130.879,0 211.919,90.3864 211.919,199.4684 0,109.09 -81.04,199.481 -211.919,199.481 -130.921,0 -211.929,-90.391 -211.929,-199.481 M 1647.36,617.605 H 1539.31 V 20.25 h 108.05 z M 1210.02,410.875 V 20.25 h 108.01 v 317.887 c 36.39,31.16 62.35,20.777 134.04,-38.449 l 43.63,97.66 c -21.82,9.347 -49.87,19.726 -90.39,19.726 -40.51,0 -70.65,-19.726 -85.18,-37.398 l -5.22,-6.211 -1.03,1.043 1.03,36.367 h -104.89" /><path
         id="path20"
         style="fill:#ffffff;fill-opacity:1;fill-rule:nonzero;stroke:none"
         d="M 3555.99,410.875 H 3447.96 V 20.2383 h 108.03 V 410.875" /><path
         id="path22"
         style="fill:#ffffff;fill-opacity:1;fill-rule:nonzero;stroke:none"
         d="m 3505.47,587.445 c -32.23,0 -57.15,-24.937 -57.15,-57.148 0,-32.172 24.92,-57.109 57.15,-57.109 32.21,0 57.13,24.937 57.13,57.109 0,32.211 -24.92,57.148 -57.13,57.148" /><path
         id="path24"
         style="fill:#ffffff;fill-opacity:1;fill-rule:nonzero;stroke:none"
         d="m 5464.62,1018.52 c 3.8,0 6.87,0.79 9.22,2.39 2.35,1.61 3.52,4.05 3.52,7.36 0,6.2 -4.1,9.29 -12.29,9.29 h -8.85 v -19.04 z m -20.4,27.3 h 25.5 c 6.6,0 11.69,-1.43 15.3,-4.28 3.59,-2.84 5.4,-6.82 5.4,-11.93 0,-4.2 -1.51,-7.74 -4.5,-10.64 -3,-2.9 -6.96,-4.71 -11.86,-5.4 2.5,-0.8 4.53,-1.95 6.08,-3.46 1.55,-1.49 3.17,-3.54 4.88,-6.14 l 11.39,-17.404 h -13.94 l -8.86,14.854 c -2.5,4.09 -4.52,6.59 -6.07,7.5 -1.55,0.9 -3.72,1.35 -6.53,1.35 h -4.79 v -23.704 h -12 z m 56.54,-63.304 c 9.2,9.199 13.81,20.354 13.81,33.454 0,12.89 -4.63,23.97 -13.88,33.23 -9.26,9.24 -20.27,13.87 -33.07,13.87 -13,0 -24.15,-4.66 -33.45,-13.95 -9.31,-9.3 -13.96,-20.41 -13.96,-33.3 0,-13 4.68,-24.105 14.03,-33.304 9.35,-9.2 20.48,-13.801 33.38,-13.801 12.9,0 23.94,4.601 33.14,13.801 z m 4.13,70.954 c 10.55,-10.41 15.82,-22.96 15.82,-37.65 0,-14.51 -5.19,-26.976 -15.59,-37.425 -10.4,-10.45 -22.9,-15.676 -37.5,-15.676 -14.81,0 -27.44,5.246 -37.88,15.754 -10.45,10.496 -15.68,22.947 -15.68,37.347 0,14.5 5.23,27 15.68,37.5 10.44,10.49 23.02,15.75 37.73,15.75 14.39,0 26.86,-5.21 37.42,-15.6" /></g></g></svg>